<svg width="463" height="85" viewBox="0 0 463 85" fill="none" xmlns="http://www.w3.org/2000/svg">
<circle cx="13.8798" cy="13.1955" r="9.82172" fill="white"/>
<circle cx="43.1049" cy="13.1955" r="9.82172" fill="white"/>
<circle cx="13.8798" cy="42.4206" r="9.82172" fill="white"/>
<path d="M52.9266 42.4206C52.9266 47.845 48.5293 52.2423 43.1049 52.2423C37.6805 52.2423 33.2832 47.845 33.2832 42.4206C33.2832 36.9962 37.6805 32.5989 43.1049 32.5989C48.5293 32.5989 52.9266 36.9962 52.9266 42.4206ZM36.1214 42.4206C36.1214 46.2775 39.2481 49.4041 43.1049 49.4041C46.9618 49.4041 50.0884 46.2775 50.0884 42.4206C50.0884 38.5638 46.9618 35.4371 43.1049 35.4371C39.2481 35.4371 36.1214 38.5638 36.1214 42.4206Z" fill="#FBA834"/>
<circle cx="13.8798" cy="71.6457" r="9.82172" fill="white"/>
<circle cx="43.1049" cy="71.6457" r="9.82172" fill="white"/>
<path d="M76.1047 66.3533C74.9506 66.3533 74.085 66.1758 73.5079 65.8207C72.9309 65.4655 72.5536 64.9773 72.376 64.3558C72.2429 63.7344 72.1763 63.0463 72.1763 62.2917V23.8727C72.1763 23.1625 72.2429 22.5189 72.376 21.9418C72.5536 21.3203 72.9309 20.8321 73.5079 20.4769C74.085 20.0774 74.995 19.8777 76.2379 19.8777C77.1701 19.8777 77.8581 19.9443 78.302 20.0774C78.7903 20.1662 79.1676 20.3216 79.4339 20.5435C79.7003 20.7211 79.9666 20.9652 80.2329 21.276L96.4794 43.9811H94.948L111.261 21.2094C111.572 20.8543 111.883 20.5879 112.193 20.4104C112.504 20.2328 112.903 20.0996 113.392 20.0109C113.88 19.9221 114.524 19.8777 115.323 19.8777C116.521 19.8777 117.409 20.0774 117.986 20.4769C118.563 20.8321 118.918 21.3203 119.051 21.9418C119.229 22.5632 119.318 23.2513 119.318 24.0059V62.4249C119.318 63.0907 119.229 63.7344 119.051 64.3558C118.918 64.9773 118.563 65.4655 117.986 65.8207C117.409 66.1758 116.499 66.3533 115.256 66.3533C114.058 66.3533 113.17 66.1536 112.593 65.7541C112.016 65.399 111.638 64.9107 111.461 64.2892C111.328 63.6678 111.261 63.0019 111.261 62.2917V33.7272L99.1428 51.2388C99.0096 51.4163 98.8099 51.6605 98.5435 51.9712C98.2772 52.2375 97.9221 52.4817 97.4782 52.7036C97.0343 52.9256 96.435 53.0365 95.6804 53.0365C94.9702 53.0365 94.3931 52.9256 93.9492 52.7036C93.5053 52.4817 93.1502 52.2375 92.8839 51.9712C92.6619 51.7048 92.44 51.4385 92.2181 51.1722L80.1664 33.7272V62.4249C80.1664 63.0907 80.0776 63.7344 79.9 64.3558C79.7668 64.9773 79.4117 65.4655 78.8347 65.8207C78.2576 66.1758 77.3476 66.3533 76.1047 66.3533Z" fill="white"/>
<path d="M153.179 66.2867C151.892 66.2867 150.937 66.0426 150.316 65.5543C149.694 65.066 149.384 64.4002 149.384 63.5568L149.85 61.3595C149.495 61.9366 148.895 62.6246 148.052 63.4236C147.208 64.1782 146.099 64.8663 144.723 65.4877C143.347 66.0648 141.682 66.3533 139.729 66.3533C137.643 66.3533 135.667 65.9316 133.803 65.0882C131.983 64.2004 130.363 63.0019 128.942 61.4927C127.566 59.9391 126.456 58.1857 125.613 56.2326C124.814 54.235 124.415 52.1043 124.415 49.8405C124.415 47.6654 124.814 45.6235 125.613 43.7148C126.456 41.7616 127.588 40.0304 129.009 38.5212C130.429 37.012 132.05 35.8357 133.869 34.9923C135.734 34.1045 137.687 33.6606 139.729 33.6606C141.549 33.6606 143.08 33.9047 144.323 34.393C145.61 34.8813 146.698 35.5027 147.586 36.2574C148.474 36.9676 149.206 37.7222 149.783 38.5212L149.384 36.5903C149.384 35.6137 149.694 34.8813 150.316 34.393C150.937 33.8603 151.914 33.594 153.245 33.594C154.488 33.594 155.376 33.7937 155.909 34.1933C156.441 34.5484 156.774 35.0588 156.908 35.7247C157.041 36.3461 157.107 37.0564 157.107 37.8554V62.2251C157.107 62.9797 157.041 63.6678 156.908 64.2892C156.774 64.9107 156.419 65.399 155.842 65.7541C155.31 66.1092 154.422 66.2867 153.179 66.2867ZM140.927 58.563C142.437 58.563 143.79 58.1857 144.989 57.4311C146.188 56.6765 147.142 55.6555 147.852 54.3682C148.607 53.0365 148.984 51.5717 148.984 49.9737C148.984 48.2425 148.607 46.7332 147.852 45.4459C147.097 44.1587 146.099 43.1599 144.856 42.4497C143.657 41.695 142.303 41.3177 140.794 41.3177C139.152 41.3177 137.687 41.7172 136.4 42.5163C135.112 43.2709 134.091 44.314 133.337 45.6457C132.627 46.933 132.271 48.3978 132.271 50.0402C132.271 51.6383 132.649 53.0809 133.403 54.3682C134.158 55.6555 135.179 56.6765 136.466 57.4311C137.798 58.1857 139.285 58.563 140.927 58.563Z" fill="white"/>
<path d="M179.968 66.4199C177.793 66.4199 175.929 66.198 174.375 65.7541C172.821 65.3102 171.556 64.6221 170.58 63.69C169.603 62.7578 168.871 61.5593 168.382 60.0944C167.938 58.5852 167.717 56.8096 167.717 54.7677V26.5361C167.717 25.7371 167.783 25.049 167.916 24.472C168.094 23.8949 168.449 23.451 168.982 23.1403C169.559 22.7852 170.446 22.6076 171.645 22.6076C172.888 22.6076 173.776 22.7852 174.308 23.1403C174.885 23.4954 175.24 23.9837 175.374 24.6052C175.551 25.1822 175.64 25.8259 175.64 26.5361V54.5014C175.64 55.4335 175.707 56.1882 175.84 56.7652C176.017 57.3423 176.261 57.7862 176.572 58.0969C176.927 58.3632 177.371 58.563 177.904 58.6962C178.481 58.7849 179.169 58.8293 179.968 58.8293C180.811 58.8293 181.522 58.8959 182.099 59.0291C182.72 59.1623 183.186 59.4952 183.497 60.0278C183.808 60.5161 183.963 61.3373 183.963 62.4915C183.963 63.7344 183.763 64.6443 183.364 65.2214C183.009 65.7541 182.52 66.087 181.899 66.2202C181.322 66.3533 180.678 66.4199 179.968 66.4199ZM164.987 34.2598L171.845 34.3264L181.033 34.0601C181.788 34.0601 182.454 34.1489 183.031 34.3264C183.652 34.4596 184.141 34.8147 184.496 35.3918C184.851 35.9244 185.028 36.8122 185.028 38.0551C185.028 39.2092 184.851 40.0748 184.496 40.6519C184.141 41.229 183.674 41.6063 183.097 41.7838C182.52 41.917 181.855 41.9836 181.1 41.9836L172.178 41.8504L164.787 41.917C163.677 41.8726 162.9 41.5619 162.456 40.9848C162.057 40.3634 161.857 39.3646 161.857 37.9885C161.857 36.7012 162.101 35.7691 162.59 35.192C163.122 34.5706 163.921 34.2598 164.987 34.2598Z" fill="white"/>
<path d="M217.292 66.2867C216.005 66.2867 215.05 66.0426 214.429 65.5543C213.807 65.066 213.497 64.4002 213.497 63.5568L213.963 61.3595C213.608 61.9366 213.008 62.6246 212.165 63.4236C211.322 64.1782 210.212 64.8663 208.836 65.4877C207.46 66.0648 205.795 66.3533 203.842 66.3533C201.756 66.3533 199.78 65.9316 197.916 65.0882C196.096 64.2004 194.476 63.0019 193.055 61.4927C191.679 59.9391 190.57 58.1857 189.726 56.2326C188.927 54.235 188.528 52.1043 188.528 49.8405C188.528 47.6654 188.927 45.6235 189.726 43.7148C190.57 41.7616 191.701 40.0304 193.122 38.5212C194.542 37.012 196.163 35.8357 197.983 34.9923C199.847 34.1045 201.8 33.6606 203.842 33.6606C205.662 33.6606 207.193 33.9047 208.436 34.393C209.724 34.8813 210.811 35.5027 211.699 36.2574C212.587 36.9676 213.319 37.7222 213.896 38.5212L213.497 36.5903C213.497 35.6137 213.807 34.8813 214.429 34.393C215.05 33.8603 216.027 33.594 217.359 33.594C218.601 33.594 219.489 33.7937 220.022 34.1933C220.555 34.5484 220.887 35.0588 221.021 35.7247C221.154 36.3461 221.22 37.0564 221.22 37.8554V62.2251C221.22 62.9797 221.154 63.6678 221.021 64.2892C220.887 64.9107 220.532 65.399 219.955 65.7541C219.423 66.1092 218.535 66.2867 217.292 66.2867ZM205.04 58.563C206.55 58.563 207.904 58.1857 209.102 57.4311C210.301 56.6765 211.255 55.6555 211.965 54.3682C212.72 53.0365 213.097 51.5717 213.097 49.9737C213.097 48.2425 212.72 46.7332 211.965 45.4459C211.211 44.1587 210.212 43.1599 208.969 42.4497C207.77 41.695 206.417 41.3177 204.907 41.3177C203.265 41.3177 201.8 41.7172 200.513 42.5163C199.225 43.2709 198.205 44.314 197.45 45.6457C196.74 46.933 196.385 48.3978 196.385 50.0402C196.385 51.6383 196.762 53.0809 197.516 54.3682C198.271 55.6555 199.292 56.6765 200.579 57.4311C201.911 58.1857 203.398 58.563 205.04 58.563Z" fill="white"/>
<path d="M277.975 66.3533C276.733 66.3533 275.823 66.1758 275.246 65.8207C274.668 65.4655 274.313 64.9773 274.18 64.3558C274.047 63.69 273.98 63.0019 273.98 62.2917V23.8727C273.98 23.1625 274.047 22.4967 274.18 21.8752C274.358 21.2538 274.713 20.7655 275.246 20.4104C275.823 20.0552 276.755 19.8777 278.042 19.8777C279.285 19.8777 280.173 20.0552 280.705 20.4104C281.282 20.7655 281.638 21.2538 281.771 21.8752C281.948 22.4967 282.037 23.1847 282.037 23.9393V62.3583C282.037 63.0685 281.948 63.7344 281.771 64.3558C281.638 64.9773 281.282 65.4655 280.705 65.8207C280.128 66.1758 279.218 66.3533 277.975 66.3533ZM248.812 66.3533C247.569 66.3533 246.659 66.1758 246.082 65.8207C245.549 65.4655 245.194 64.9773 245.016 64.3558C244.883 63.69 244.817 63.0019 244.817 62.2917V23.8727C244.817 23.1625 244.883 22.4967 245.016 21.8752C245.194 21.2538 245.571 20.7655 246.148 20.4104C246.725 20.0552 247.635 19.8777 248.878 19.8777C250.166 19.8777 251.076 20.0552 251.608 20.4104C252.185 20.7655 252.54 21.2538 252.674 21.8752C252.807 22.4967 252.873 23.1847 252.873 23.9393V62.3583C252.873 63.0685 252.785 63.7344 252.607 64.3558C252.474 64.9773 252.119 65.4655 251.542 65.8207C251.009 66.1758 250.099 66.3533 248.812 66.3533ZM250.743 46.3115V39.1205H275.046L274.979 46.3115H250.743Z" fill="white"/>
<path d="M316.648 66.2867C315.36 66.2867 314.406 66.0426 313.785 65.5543C313.163 65.066 312.852 64.4002 312.852 63.5568L313.319 61.3595C312.963 61.9366 312.364 62.6246 311.521 63.4236C310.677 64.1782 309.568 64.8663 308.192 65.4877C306.816 66.0648 305.151 66.3533 303.198 66.3533C301.111 66.3533 299.136 65.9316 297.272 65.0882C295.452 64.2004 293.832 63.0019 292.411 61.4927C291.035 59.9391 289.925 58.1857 289.082 56.2326C288.283 54.235 287.883 52.1043 287.883 49.8405C287.883 47.6654 288.283 45.6235 289.082 43.7148C289.925 41.7616 291.057 40.0304 292.478 38.5212C293.898 37.012 295.518 35.8357 297.338 34.9923C299.203 34.1045 301.156 33.6606 303.198 33.6606C305.018 33.6606 306.549 33.9047 307.792 34.393C309.079 34.8813 310.167 35.5027 311.055 36.2574C311.942 36.9676 312.675 37.7222 313.252 38.5212L312.852 36.5903C312.852 35.6137 313.163 34.8813 313.785 34.393C314.406 33.8603 315.383 33.594 316.714 33.594C317.957 33.594 318.845 33.7937 319.378 34.1933C319.91 34.5484 320.243 35.0588 320.376 35.7247C320.51 36.3461 320.576 37.0564 320.576 37.8554V62.2251C320.576 62.9797 320.51 63.6678 320.376 64.2892C320.243 64.9107 319.888 65.399 319.311 65.7541C318.778 66.1092 317.891 66.2867 316.648 66.2867ZM304.396 58.563C305.906 58.563 307.259 58.1857 308.458 57.4311C309.656 56.6765 310.611 55.6555 311.321 54.3682C312.076 53.0365 312.453 51.5717 312.453 49.9737C312.453 48.2425 312.076 46.7332 311.321 45.4459C310.566 44.1587 309.568 43.1599 308.325 42.4497C307.126 41.695 305.772 41.3177 304.263 41.3177C302.621 41.3177 301.156 41.7172 299.869 42.5163C298.581 43.2709 297.56 44.314 296.806 45.6457C296.096 46.933 295.74 48.3978 295.74 50.0402C295.74 51.6383 296.118 53.0809 296.872 54.3682C297.627 55.6555 298.648 56.6765 299.935 57.4311C301.267 58.1857 302.754 58.563 304.396 58.563Z" fill="white"/>
<path d="M343.437 66.4199C341.262 66.4199 339.397 66.198 337.844 65.7541C336.29 65.3102 335.025 64.6221 334.049 63.69C333.072 62.7578 332.34 61.5593 331.851 60.0944C331.407 58.5852 331.185 56.8096 331.185 54.7677V26.5361C331.185 25.7371 331.252 25.049 331.385 24.472C331.563 23.8949 331.918 23.451 332.451 23.1403C333.028 22.7852 333.915 22.6076 335.114 22.6076C336.357 22.6076 337.245 22.7852 337.777 23.1403C338.354 23.4954 338.709 23.9837 338.843 24.6052C339.02 25.1822 339.109 25.8259 339.109 26.5361V54.5014C339.109 55.4335 339.176 56.1882 339.309 56.7652C339.486 57.3423 339.73 57.7862 340.041 58.0969C340.396 58.3632 340.84 58.563 341.373 58.6962C341.95 58.7849 342.638 58.8293 343.437 58.8293C344.28 58.8293 344.991 58.8959 345.568 59.0291C346.189 59.1623 346.655 59.4952 346.966 60.0278C347.277 60.5161 347.432 61.3373 347.432 62.4915C347.432 63.7344 347.232 64.6443 346.833 65.2214C346.478 65.7541 345.989 66.087 345.368 66.2202C344.791 66.3533 344.147 66.4199 343.437 66.4199ZM328.456 34.2598L335.314 34.3264L344.502 34.0601C345.257 34.0601 345.923 34.1489 346.5 34.3264C347.121 34.4596 347.609 34.8147 347.965 35.3918C348.32 35.9244 348.497 36.8122 348.497 38.0551C348.497 39.2092 348.32 40.0748 347.965 40.6519C347.609 41.229 347.143 41.6063 346.566 41.7838C345.989 41.917 345.323 41.9836 344.569 41.9836L335.647 41.8504L328.256 41.917C327.146 41.8726 326.369 41.5619 325.925 40.9848C325.526 40.3634 325.326 39.3646 325.326 37.9885C325.326 36.7012 325.57 35.7691 326.058 35.192C326.591 34.5706 327.39 34.2598 328.456 34.2598Z" fill="white"/>
<path d="M357.723 66.4199C356.524 66.4199 355.637 66.2202 355.059 65.8207C354.482 65.4655 354.127 64.9995 353.994 64.4224C353.861 63.8009 353.794 63.1129 353.794 62.3583V37.589C353.794 36.8788 353.861 36.2352 353.994 35.6581C354.172 35.0366 354.527 34.5484 355.059 34.1933C355.637 33.8381 356.546 33.6606 357.789 33.6606C359.032 33.6606 359.92 33.8381 360.453 34.1933C361.03 34.5484 361.385 35.0366 361.518 35.6581C361.651 36.2795 361.718 36.9676 361.718 37.7222V62.4249C361.718 63.1795 361.651 63.8675 361.518 64.489C361.385 65.066 361.03 65.5321 360.453 65.8872C359.92 66.2424 359.01 66.4199 357.723 66.4199ZM357.723 27.2019C356.436 27.2019 355.481 27.0244 354.86 26.6693C354.283 26.2698 353.905 25.7371 353.728 25.0712C353.595 24.4054 353.528 23.673 353.528 22.874C353.528 22.0306 353.595 21.2981 353.728 20.6767C353.905 20.0552 354.305 19.567 354.926 19.2118C355.548 18.8123 356.502 18.6126 357.789 18.6126C359.121 18.6126 360.075 18.8123 360.652 19.2118C361.23 19.6114 361.607 20.144 361.784 20.8099C361.962 21.4313 362.051 22.1637 362.051 23.0071C362.051 23.7618 361.962 24.472 361.784 25.1378C361.607 25.8037 361.23 26.3141 360.652 26.6693C360.075 27.0244 359.099 27.2019 357.723 27.2019Z" fill="white"/>
</svg>
