<svg width="463" height="85" viewBox="0 0 463 85" fill="none" xmlns="http://www.w3.org/2000/svg">
<circle cx="13.8798" cy="13.1131" r="9.82172" fill="#387ADF"/>
<circle cx="43.1049" cy="13.1131" r="9.82172" fill="#387ADF"/>
<circle cx="13.8798" cy="42.3382" r="9.82172" fill="#387ADF"/>
<path d="M52.9266 42.3382C52.9266 47.7626 48.5293 52.1599 43.1049 52.1599C37.6805 52.1599 33.2832 47.7626 33.2832 42.3382C33.2832 36.9138 37.6805 32.5165 43.1049 32.5165C48.5293 32.5165 52.9266 36.9138 52.9266 42.3382ZM36.1214 42.3382C36.1214 46.1951 39.2481 49.3217 43.1049 49.3217C46.9618 49.3217 50.0884 46.1951 50.0884 42.3382C50.0884 38.4813 46.9618 35.3547 43.1049 35.3547C39.2481 35.3547 36.1214 38.4813 36.1214 42.3382Z" fill="#FBA834"/>
<circle cx="13.8798" cy="71.5633" r="9.82172" fill="#387ADF"/>
<circle cx="43.1049" cy="71.5633" r="9.82172" fill="#387ADF"/>
<path d="M76.1047 66.2709C74.9506 66.2709 74.085 66.0934 73.5079 65.7382C72.9309 65.3831 72.5536 64.8948 72.376 64.2734C72.2429 63.6519 72.1763 62.9639 72.1763 62.2093V23.7903C72.1763 23.0801 72.2429 22.4364 72.376 21.8594C72.5536 21.2379 72.9309 20.7496 73.5079 20.3945C74.085 19.995 74.995 19.7953 76.2379 19.7953C77.1701 19.7953 77.8581 19.8619 78.302 19.995C78.7903 20.0838 79.1676 20.2392 79.4339 20.4611C79.7003 20.6387 79.9666 20.8828 80.2329 21.1935L96.4794 43.8987H94.948L111.261 21.127C111.572 20.7718 111.883 20.5055 112.193 20.3279C112.504 20.1504 112.903 20.0172 113.392 19.9284C113.88 19.8397 114.524 19.7953 115.323 19.7953C116.521 19.7953 117.409 19.995 117.986 20.3945C118.563 20.7496 118.918 21.2379 119.051 21.8594C119.229 22.4808 119.318 23.1689 119.318 23.9235V62.3425C119.318 63.0083 119.229 63.6519 119.051 64.2734C118.918 64.8948 118.563 65.3831 117.986 65.7382C117.409 66.0934 116.499 66.2709 115.256 66.2709C114.058 66.2709 113.17 66.0712 112.593 65.6717C112.016 65.3165 111.638 64.8283 111.461 64.2068C111.328 63.5854 111.261 62.9195 111.261 62.2093V33.6447L99.1428 51.1563C99.0096 51.3339 98.8099 51.578 98.5435 51.8888C98.2772 52.1551 97.9221 52.3992 97.4782 52.6212C97.0343 52.8431 96.435 52.9541 95.6804 52.9541C94.9702 52.9541 94.3931 52.8431 93.9492 52.6212C93.5053 52.3992 93.1502 52.1551 92.8839 51.8888C92.6619 51.6224 92.44 51.3561 92.2181 51.0898L80.1664 33.6447V62.3425C80.1664 63.0083 80.0776 63.6519 79.9 64.2734C79.7668 64.8948 79.4117 65.3831 78.8347 65.7382C78.2576 66.0934 77.3476 66.2709 76.1047 66.2709Z" fill="#387ADF"/>
<path d="M153.179 66.2043C151.892 66.2043 150.937 65.9602 150.316 65.4719C149.694 64.9836 149.384 64.3178 149.384 63.4744L149.85 61.2771C149.495 61.8542 148.895 62.5422 148.052 63.3412C147.208 64.0958 146.099 64.7839 144.723 65.4053C143.347 65.9824 141.682 66.2709 139.729 66.2709C137.643 66.2709 135.667 65.8492 133.803 65.0058C131.983 64.118 130.363 62.9195 128.942 61.4103C127.566 59.8567 126.456 58.1033 125.613 56.1501C124.814 54.1526 124.415 52.0219 124.415 49.7581C124.415 47.583 124.814 45.5411 125.613 43.6324C126.456 41.6792 127.588 39.948 129.009 38.4388C130.429 36.9296 132.05 35.7532 133.869 34.9098C135.734 34.0221 137.687 33.5782 139.729 33.5782C141.549 33.5782 143.08 33.8223 144.323 34.3106C145.61 34.7989 146.698 35.4203 147.586 36.1749C148.474 36.8852 149.206 37.6398 149.783 38.4388L149.384 36.5079C149.384 35.5313 149.694 34.7989 150.316 34.3106C150.937 33.7779 151.914 33.5116 153.245 33.5116C154.488 33.5116 155.376 33.7113 155.909 34.1108C156.441 34.466 156.774 34.9764 156.908 35.6423C157.041 36.2637 157.107 36.974 157.107 37.773V62.1427C157.107 62.8973 157.041 63.5854 156.908 64.2068C156.774 64.8283 156.419 65.3165 155.842 65.6717C155.31 66.0268 154.422 66.2043 153.179 66.2043ZM140.927 58.4806C142.437 58.4806 143.79 58.1033 144.989 57.3487C146.188 56.594 147.142 55.5731 147.852 54.2858C148.607 52.9541 148.984 51.4893 148.984 49.8912C148.984 48.1601 148.607 46.6508 147.852 45.3635C147.097 44.0762 146.099 43.0775 144.856 42.3673C143.657 41.6126 142.303 41.2353 140.794 41.2353C139.152 41.2353 137.687 41.6348 136.4 42.4338C135.112 43.1885 134.091 44.2316 133.337 45.5633C132.627 46.8506 132.271 48.3154 132.271 49.9578C132.271 51.5558 132.649 52.9985 133.403 54.2858C134.158 55.5731 135.179 56.594 136.466 57.3487C137.798 58.1033 139.285 58.4806 140.927 58.4806Z" fill="#387ADF"/>
<path d="M179.968 66.3375C177.793 66.3375 175.929 66.1156 174.375 65.6717C172.821 65.2278 171.556 64.5397 170.58 63.6076C169.603 62.6754 168.871 61.4769 168.382 60.012C167.938 58.5028 167.717 56.7272 167.717 54.6853V26.4537C167.717 25.6547 167.783 24.9666 167.916 24.3896C168.094 23.8125 168.449 23.3686 168.982 23.0579C169.559 22.7028 170.446 22.5252 171.645 22.5252C172.888 22.5252 173.776 22.7028 174.308 23.0579C174.885 23.413 175.24 23.9013 175.374 24.5227C175.551 25.0998 175.64 25.7434 175.64 26.4537V54.419C175.64 55.3511 175.707 56.1058 175.84 56.6828C176.017 57.2599 176.261 57.7038 176.572 58.0145C176.927 58.2808 177.371 58.4806 177.904 58.6138C178.481 58.7025 179.169 58.7469 179.968 58.7469C180.811 58.7469 181.522 58.8135 182.099 58.9467C182.72 59.0798 183.186 59.4128 183.497 59.9454C183.808 60.4337 183.963 61.2549 183.963 62.409C183.963 63.6519 183.763 64.5619 183.364 65.139C183.009 65.6717 182.52 66.0046 181.899 66.1377C181.322 66.2709 180.678 66.3375 179.968 66.3375ZM164.987 34.1774L171.845 34.244L181.033 33.9777C181.788 33.9777 182.454 34.0664 183.031 34.244C183.652 34.3772 184.141 34.7323 184.496 35.3093C184.851 35.842 185.028 36.7298 185.028 37.9727C185.028 39.1268 184.851 39.9924 184.496 40.5695C184.141 41.1465 183.674 41.5239 183.097 41.7014C182.52 41.8346 181.855 41.9012 181.1 41.9012L172.178 41.768L164.787 41.8346C163.677 41.7902 162.9 41.4795 162.456 40.9024C162.057 40.281 161.857 39.2822 161.857 37.9061C161.857 36.6188 162.101 35.6867 162.59 35.1096C163.122 34.4881 163.921 34.1774 164.987 34.1774Z" fill="#387ADF"/>
<path d="M217.292 66.2043C216.005 66.2043 215.05 65.9602 214.429 65.4719C213.807 64.9836 213.497 64.3178 213.497 63.4744L213.963 61.2771C213.608 61.8542 213.008 62.5422 212.165 63.3412C211.322 64.0958 210.212 64.7839 208.836 65.4053C207.46 65.9824 205.795 66.2709 203.842 66.2709C201.756 66.2709 199.78 65.8492 197.916 65.0058C196.096 64.118 194.476 62.9195 193.055 61.4103C191.679 59.8567 190.57 58.1033 189.726 56.1501C188.927 54.1526 188.528 52.0219 188.528 49.7581C188.528 47.583 188.927 45.5411 189.726 43.6324C190.57 41.6792 191.701 39.948 193.122 38.4388C194.542 36.9296 196.163 35.7532 197.983 34.9098C199.847 34.0221 201.8 33.5782 203.842 33.5782C205.662 33.5782 207.193 33.8223 208.436 34.3106C209.724 34.7989 210.811 35.4203 211.699 36.1749C212.587 36.8852 213.319 37.6398 213.896 38.4388L213.497 36.5079C213.497 35.5313 213.807 34.7989 214.429 34.3106C215.05 33.7779 216.027 33.5116 217.359 33.5116C218.601 33.5116 219.489 33.7113 220.022 34.1108C220.555 34.466 220.887 34.9764 221.021 35.6423C221.154 36.2637 221.22 36.974 221.22 37.773V62.1427C221.22 62.8973 221.154 63.5854 221.021 64.2068C220.887 64.8283 220.532 65.3165 219.955 65.6717C219.423 66.0268 218.535 66.2043 217.292 66.2043ZM205.04 58.4806C206.55 58.4806 207.904 58.1033 209.102 57.3487C210.301 56.594 211.255 55.5731 211.965 54.2858C212.72 52.9541 213.097 51.4893 213.097 49.8912C213.097 48.1601 212.72 46.6508 211.965 45.3635C211.211 44.0762 210.212 43.0775 208.969 42.3673C207.77 41.6126 206.417 41.2353 204.907 41.2353C203.265 41.2353 201.8 41.6348 200.513 42.4338C199.225 43.1885 198.205 44.2316 197.45 45.5633C196.74 46.8506 196.385 48.3154 196.385 49.9578C196.385 51.5558 196.762 52.9985 197.516 54.2858C198.271 55.5731 199.292 56.594 200.579 57.3487C201.911 58.1033 203.398 58.4806 205.04 58.4806Z" fill="#387ADF"/>
<path d="M277.975 66.2709C276.733 66.2709 275.823 66.0934 275.246 65.7382C274.668 65.3831 274.313 64.8948 274.18 64.2734C274.047 63.6076 273.98 62.9195 273.98 62.2093V23.7903C273.98 23.0801 274.047 22.4142 274.18 21.7928C274.358 21.1713 274.713 20.6831 275.246 20.3279C275.823 19.9728 276.755 19.7953 278.042 19.7953C279.285 19.7953 280.173 19.9728 280.705 20.3279C281.282 20.6831 281.638 21.1713 281.771 21.7928C281.948 22.4142 282.037 23.1023 282.037 23.8569V62.2759C282.037 62.9861 281.948 63.6519 281.771 64.2734C281.638 64.8948 281.282 65.3831 280.705 65.7382C280.128 66.0934 279.218 66.2709 277.975 66.2709ZM248.812 66.2709C247.569 66.2709 246.659 66.0934 246.082 65.7382C245.549 65.3831 245.194 64.8948 245.016 64.2734C244.883 63.6076 244.817 62.9195 244.817 62.2093V23.7903C244.817 23.0801 244.883 22.4142 245.016 21.7928C245.194 21.1713 245.571 20.6831 246.148 20.3279C246.725 19.9728 247.635 19.7953 248.878 19.7953C250.166 19.7953 251.076 19.9728 251.608 20.3279C252.185 20.6831 252.54 21.1713 252.674 21.7928C252.807 22.4142 252.873 23.1023 252.873 23.8569V62.2759C252.873 62.9861 252.785 63.6519 252.607 64.2734C252.474 64.8948 252.119 65.3831 251.542 65.7382C251.009 66.0934 250.099 66.2709 248.812 66.2709ZM250.743 46.2291V39.0381H275.046L274.979 46.2291H250.743Z" fill="#387ADF"/>
<path d="M316.648 66.2043C315.36 66.2043 314.406 65.9602 313.785 65.4719C313.163 64.9836 312.852 64.3178 312.852 63.4744L313.319 61.2771C312.963 61.8542 312.364 62.5422 311.521 63.3412C310.677 64.0958 309.568 64.7839 308.192 65.4053C306.816 65.9824 305.151 66.2709 303.198 66.2709C301.111 66.2709 299.136 65.8492 297.272 65.0058C295.452 64.118 293.832 62.9195 292.411 61.4103C291.035 59.8567 289.925 58.1033 289.082 56.1501C288.283 54.1526 287.883 52.0219 287.883 49.7581C287.883 47.583 288.283 45.5411 289.082 43.6324C289.925 41.6792 291.057 39.948 292.478 38.4388C293.898 36.9296 295.518 35.7532 297.338 34.9098C299.203 34.0221 301.156 33.5782 303.198 33.5782C305.018 33.5782 306.549 33.8223 307.792 34.3106C309.079 34.7989 310.167 35.4203 311.055 36.1749C311.942 36.8852 312.675 37.6398 313.252 38.4388L312.852 36.5079C312.852 35.5313 313.163 34.7989 313.785 34.3106C314.406 33.7779 315.383 33.5116 316.714 33.5116C317.957 33.5116 318.845 33.7113 319.378 34.1108C319.91 34.466 320.243 34.9764 320.376 35.6423C320.51 36.2637 320.576 36.974 320.576 37.773V62.1427C320.576 62.8973 320.51 63.5854 320.376 64.2068C320.243 64.8283 319.888 65.3165 319.311 65.6717C318.778 66.0268 317.891 66.2043 316.648 66.2043ZM304.396 58.4806C305.906 58.4806 307.259 58.1033 308.458 57.3487C309.656 56.594 310.611 55.5731 311.321 54.2858C312.076 52.9541 312.453 51.4893 312.453 49.8912C312.453 48.1601 312.076 46.6508 311.321 45.3635C310.566 44.0762 309.568 43.0775 308.325 42.3673C307.126 41.6126 305.772 41.2353 304.263 41.2353C302.621 41.2353 301.156 41.6348 299.869 42.4338C298.581 43.1885 297.56 44.2316 296.806 45.5633C296.096 46.8506 295.74 48.3154 295.74 49.9578C295.74 51.5558 296.118 52.9985 296.872 54.2858C297.627 55.5731 298.648 56.594 299.935 57.3487C301.267 58.1033 302.754 58.4806 304.396 58.4806Z" fill="#387ADF"/>
<path d="M343.437 66.3375C341.262 66.3375 339.397 66.1156 337.844 65.6717C336.29 65.2278 335.025 64.5397 334.049 63.6076C333.072 62.6754 332.34 61.4769 331.851 60.012C331.407 58.5028 331.185 56.7272 331.185 54.6853V26.4537C331.185 25.6547 331.252 24.9666 331.385 24.3896C331.563 23.8125 331.918 23.3686 332.451 23.0579C333.028 22.7028 333.915 22.5252 335.114 22.5252C336.357 22.5252 337.245 22.7028 337.777 23.0579C338.354 23.413 338.709 23.9013 338.843 24.5227C339.02 25.0998 339.109 25.7434 339.109 26.4537V54.419C339.109 55.3511 339.176 56.1058 339.309 56.6828C339.486 57.2599 339.73 57.7038 340.041 58.0145C340.396 58.2808 340.84 58.4806 341.373 58.6138C341.95 58.7025 342.638 58.7469 343.437 58.7469C344.28 58.7469 344.991 58.8135 345.568 58.9467C346.189 59.0798 346.655 59.4128 346.966 59.9454C347.277 60.4337 347.432 61.2549 347.432 62.409C347.432 63.6519 347.232 64.5619 346.833 65.139C346.478 65.6717 345.989 66.0046 345.368 66.1377C344.791 66.2709 344.147 66.3375 343.437 66.3375ZM328.456 34.1774L335.314 34.244L344.502 33.9777C345.257 33.9777 345.923 34.0664 346.5 34.244C347.121 34.3772 347.609 34.7323 347.965 35.3093C348.32 35.842 348.497 36.7298 348.497 37.9727C348.497 39.1268 348.32 39.9924 347.965 40.5695C347.609 41.1465 347.143 41.5239 346.566 41.7014C345.989 41.8346 345.323 41.9012 344.569 41.9012L335.647 41.768L328.256 41.8346C327.146 41.7902 326.369 41.4795 325.925 40.9024C325.526 40.281 325.326 39.2822 325.326 37.9061C325.326 36.6188 325.57 35.6867 326.058 35.1096C326.591 34.4881 327.39 34.1774 328.456 34.1774Z" fill="#387ADF"/>
<path d="M357.723 66.3375C356.524 66.3375 355.637 66.1377 355.059 65.7382C354.482 65.3831 354.127 64.917 353.994 64.34C353.861 63.7185 353.794 63.0305 353.794 62.2759V37.5066C353.794 36.7964 353.861 36.1527 353.994 35.5757C354.172 34.9542 354.527 34.466 355.059 34.1108C355.637 33.7557 356.546 33.5782 357.789 33.5782C359.032 33.5782 359.92 33.7557 360.453 34.1108C361.03 34.466 361.385 34.9542 361.518 35.5757C361.651 36.1971 361.718 36.8852 361.718 37.6398V62.3425C361.718 63.0971 361.651 63.7851 361.518 64.4066C361.385 64.9836 361.03 65.4497 360.453 65.8048C359.92 66.1599 359.01 66.3375 357.723 66.3375ZM357.723 27.1195C356.436 27.1195 355.481 26.942 354.86 26.5868C354.283 26.1873 353.905 25.6547 353.728 24.9888C353.595 24.323 353.528 23.5906 353.528 22.7916C353.528 21.9482 353.595 21.2157 353.728 20.5943C353.905 19.9728 354.305 19.4845 354.926 19.1294C355.548 18.7299 356.502 18.5302 357.789 18.5302C359.121 18.5302 360.075 18.7299 360.652 19.1294C361.23 19.5289 361.607 20.0616 361.784 20.7275C361.962 21.3489 362.051 22.0813 362.051 22.9247C362.051 23.6793 361.962 24.3896 361.784 25.0554C361.607 25.7213 361.23 26.2317 360.652 26.5868C360.075 26.942 359.099 27.1195 357.723 27.1195Z" fill="#387ADF"/>
</svg>
